{"title":"White House Down (2013) 720p BluRay x264 [Dual Audio] [Eng- Hind","uid":9525226,"size":1054813949,"categoryP":"video","categoryS":"hd___movies","magnet":"?xt=urn:btih:fca7c401b95915d8a46a6ab0e62f3c7dc0239bf9&amp;dn=White+House+Down+%282013%29+720p+BluRay+x264+%5BDual+Audio%5D+%5BEng-+Hind&amp;tr=udp%3A%2F%2Ftracker.openbittorrent.com%3A80&amp;tr=udp%3A%2F%2Fopen.demonii.com%3A1337&amp;tr=udp%3A%2F%2Ftracker.coppersurfer.tk%3A6969&amp;tr=udp%3A%2F%2Fexodus.desync.com%3A6969","seeders":2,"leechers":4,"uploader":"Chaudhary1","files":3,"time":1390737499,"description":" &lt;a href=&quot;http://i.imgur.com/W3kI7ui.png&quot; rel=&quot;nofollow&quot; target=&quot;_NEW&quot;&gt;http://i.imgur.com/W3kI7ui.png&lt;/a&gt;\n\n\nComplete name                            : White House Down (2013) 720p BluRay x264 [Dual Audio] [Eng- Hindi] [Chaudhary]\nFormat                                   : Matroska\nFormat version                           : Version 4 / Version 2\nFile size                                : 1 001 MiB\nDuration                                 : 2h 11mn\nOverall bit rate                         : 1 064 Kbps\nMovie name                               : Chaudhary\n\nVideo\nID                                       : 1\nFormat                                   : AVC\nFormat/Info                              : Advanced Video Codec\nFormat profile                           : &lt;a class=&quot;__cf_email__&quot; href=&quot;/cdn-cgi/l/email-protection&quot; data-cfemail=&quot;a4eccdc3cce4e8908a95&quot;&gt;[email&amp;#160;protected]&lt;/a&gt;&lt;script cf-hash='f9e31' type=&quot;text/javascript&quot;&gt;\n/* &lt;![CDATA[ */!function(){try{var t=&quot;currentScript&quot;in document?document.currentScript:function(){for(var t=document.getElementsByTagName(&quot;script&quot;),e=t.length;e--;)if(t[e].getAttribute(&quot;cf-hash&quot;))return t[e]}();if(t&amp;&amp;t.previousSibling){var e,r,n,i,c=t.previousSibling,a=c.getAttribute(&quot;data-cfemail&quot;);if(a){for(e=&quot;&quot;,r=parseInt(a.substr(0,2),16),n=2;a.length-n;n+=2)i=parseInt(a.substr(n,2),16)^r,e+=String.fromCharCode(i);e=document.createTextNode(e),c.parentNode.replaceChild(e,c)}}}catch(u){}}();/* ]]&gt; */&lt;/script&gt;\nFormat settings, CABAC                   : Yes\nFormat settings, ReFrames                : 5 frames\nCodec ID                                 : V_MPEG4/ISO/AVC\nDuration                                 : 2h 11mn\nBit rate                                 : 886 Kbps\nWidth                                    : 1 280 pixels\nHeight                                   : 534 pixels\nDisplay aspect ratio                     : 2.40:1\nFrame rate mode                          : Constant\nFrame rate                               : 23.976 fps\nColor space                              : YUV\nChroma subsampling                       : 4:2:0\nBit depth                                : 8 bits\nScan type                                : Progressive\nBits/(Pixel*Frame)                       : 0.054\nStream size                              : 816 MiB (81%)\nTitle                                    : Chaudhary\nWriting library                          : x264 core 135 r2 \nLanguage                                 : English\nDefault                                  : Yes\nForced                                   : No\nColor primaries                          : BT.709\nMatrix coefficients                      : BT.709\n\nAudio #1\nID                                       : 2\nFormat                                   : MPEG Audio\nFormat version                           : Version 2\nFormat profile                           : Layer 3\nMode                                     : Joint stereo\nMode extension                           : MS Stereo\nCodec ID                                 : A_MPEG/L3\nCodec ID/Hint                            : MP3\nDuration                                 : 2h 11mn\nBit rate mode                            : Constant\nChannel count                            : 2 channels\nCompression mode                         : Lossy\nStream size                              : 45.2 MiB (5%)\nTitle                                    : Chaudhary\nWriting library                          : LAME3.99.5UUUUUULAME\nLanguage                                 : English\nDefault                                  : Yes\nForced                                   : No\n\nAudio #2\nID                                       : 3\nFormat                                   : AC-3\nFormat/Info                              : Audio Coding 3\nMode extension                           : CM (complete main)\nFormat settings, Endianness              : Big\nCodec ID                                 : A_AC3\nDuration                                 : 2h 11mn\nBit rate mode                            : Constant\nBit rate                                 : 128 Kbps\nChannel count                            : 2 channels\nChannel positions                        : Front: L R\nSampling rate                            : 48.0 KHz\nBit depth                                : 16 bits\nCompression mode                         : Lossy\nStream size                              : 120 MiB (12%)\nTitle                                    : Chaudhary\nLanguage                                 : Hindi\nDefault                                  : No\nForced                                   : No\n\n &lt;a href=&quot;\nhttp://i.imgur.com/N4ZXjIL.png&quot; rel=&quot;nofollow&quot; target=&quot;_NEW&quot;&gt;\nhttp://i.imgur.com/N4ZXjIL.png&lt;/a&gt; &lt;a href=&quot;\nhttp://i.imgur.com/veUBnRm.png&quot; rel=&quot;nofollow&quot; target=&quot;_NEW&quot;&gt;\nhttp://i.imgur.com/veUBnRm.png&lt;/a&gt; &lt;a href=&quot;\nhttp://i.imgur.com/h5sMEWz.png&quot; rel=&quot;nofollow&quot; target=&quot;_NEW&quot;&gt;\nhttp://i.imgur.com/h5sMEWz.png&lt;/a&gt; &lt;a href=&quot;\nhttp://i.imgur.com/cvSmGRk.png&quot; rel=&quot;nofollow&quot; target=&quot;_NEW&quot;&gt;\nhttp://i.imgur.com/cvSmGRk.png&lt;/a&gt; &lt;a href=&quot;\nhttp://i.imgur.com/iCPBExW.jpg&quot; rel=&quot;nofollow&quot; target=&quot;_NEW&quot;&gt;\nhttp://i.imgur.com/iCPBExW.jpg&lt;/a&gt; &lt;a href=&quot;\nhttp://i.imgur.com/mUUxzZW.jpg&quot; rel=&quot;nofollow&quot; target=&quot;_NEW&quot;&gt;\nhttp://i.imgur.com/mUUxzZW.jpg&lt;/a&gt;\n\n\nSpecial Thanks To GPSoft For Hindi Audio.","torrent":{"xt":"urn:btih:fca7c401b95915d8a46a6ab0e62f3c7dc0239bf9","amp;dn":"White+House+Down+%282013%29+720p+BluRay+x264+%5BDual+Audio%5D+%5BEng-+Hind","amp;tr":["udp%3A%2F%2Ftracker.openbittorrent.com%3A80","udp%3A%2F%2Fopen.demonii.com%3A1337","udp%3A%2F%2Ftracker.coppersurfer.tk%3A6969","udp%3A%2F%2Fexodus.desync.com%3A6969"],"infoHash":"fca7c401b95915d8a46a6ab0e62f3c7dc0239bf9","infoHashBuffer":{"type":"Buffer","data":[252,167,196,1,185,89,21,216,164,106,106,176,230,47,60,125,192,35,155,249]},"announce":[],"urlList":[]}}